STARTFONT 2.1
COMMENT
COMMENT Converted from OpenType font "edunline.ttf" by "otf2bdf 3.0".
COMMENT
FONT -FreeType-Edit Undo Line BRK-Medium-R-Normal--17-120-100-100-P-88-ISO10646-1
SIZE 12 100 100
FONTBOUNDINGBOX 17 17 -2 -3
STARTPROPERTIES 19
FOUNDRY "FreeType"
FAMILY_NAME "Edit Undo Line BRK"
WEIGHT_NAME "Medium"
SLANT "R"
SETWIDTH_NAME "Normal"
ADD_STYLE_NAME ""
PIXEL_SIZE 17
POINT_SIZE 120
RESOLUTION_X 100
RESOLUTION_Y 100
SPACING "P"
AVERAGE_WIDTH 88
CHARSET_REGISTRY "ISO10646"
CHARSET_ENCODING "1"
FONT_ASCENT 14
FONT_DESCENT 3
COPYRIGHT "ÆNIGMA FONTS   [e-mail]  kentpw@norwich.net"
_OTF_FONTFILE "edunline.ttf"
_OTF_PSNAME "EditUndoLineBRK"
ENDPROPERTIES
CHARS 227
STARTCHAR 0020
ENCODING 32
SWIDTH 600 0
DWIDTH 10 0
BBX 0 0 0 0
BITMAP
ENDCHAR
STARTCHAR 0021
ENCODING 33
SWIDTH 240 0
DWIDTH 4 0
BBX 3 11 0 0
BITMAP
E0
E0
00
E0
E0
00
E0
00
00
E0
E0
ENDCHAR
STARTCHAR 0022
ENCODING 34
SWIDTH 480 0
DWIDTH 8 0
BBX 8 2 0 9
BITMAP
EF
EF
ENDCHAR
STARTCHAR 0023
ENCODING 35
SWIDTH 660 0
DWIDTH 11 0
BBX 11 11 0 0
BITMAP
7B80
FFE0
0000
FFE0
7B80
0000
7B80
FFE0
0000
FFE0
7B80
ENDCHAR
STARTCHAR 0024
ENCODING 36
SWIDTH 600 0
DWIDTH 10 0
BBX 9 15 0 -2
BITMAP
1C00
0000
7F80
FF80
0000
E000
FF00
0000
7F80
0380
0000
FF80
FF00
0000
1C00
ENDCHAR
STARTCHAR 0025
ENCODING 37
SWIDTH 780 0
DWIDTH 13 0
BBX 12 11 0 0
BITMAP
F870
D9F0
0000
FBE0
0F80
0000
1F00
7DF0
0000
F9B0
E1F0
ENDCHAR
STARTCHAR 0026
ENCODING 38
SWIDTH 600 0
DWIDTH 10 0
BBX 9 15 0 -2
BITMAP
1C00
0000
7F80
FF80
0000
E000
FC00
0000
FC00
E000
0000
FF80
7F80
0000
1C00
ENDCHAR
STARTCHAR 0027
ENCODING 39
SWIDTH 240 0
DWIDTH 4 0
BBX 3 2 0 9
BITMAP
E0
E0
ENDCHAR
STARTCHAR 0028
ENCODING 40
SWIDTH 300 0
DWIDTH 5 0
BBX 5 11 0 0
BITMAP
78
F8
00
E0
E0
00
E0
E0
00
F8
78
ENDCHAR
STARTCHAR 0029
ENCODING 41
SWIDTH 300 0
DWIDTH 5 0
BBX 5 11 0 0
BITMAP
E0
F8
00
78
78
00
78
78
00
F8
E0
ENDCHAR
STARTCHAR 002A
ENCODING 42
SWIDTH 600 0
DWIDTH 10 0
BBX 9 8 0 3
BITMAP
1C00
FF80
0000
FF80
7F00
0000
FF80
E380
ENDCHAR
STARTCHAR 002B
ENCODING 43
SWIDTH 600 0
DWIDTH 10 0
BBX 9 8 0 1
BITMAP
1C00
1C00
0000
FF80
FF80
0000
1C00
1C00
ENDCHAR
STARTCHAR 002C
ENCODING 44
SWIDTH 240 0
DWIDTH 4 0
BBX 3 4 0 -2
BITMAP
E0
E0
00
E0
ENDCHAR
STARTCHAR 002D
ENCODING 45
SWIDTH 600 0
DWIDTH 10 0
BBX 9 2 0 4
BITMAP
FF80
FF80
ENDCHAR
STARTCHAR 002E
ENCODING 46
SWIDTH 240 0
DWIDTH 4 0
BBX 3 2 0 0
BITMAP
E0
E0
ENDCHAR
STARTCHAR 002F
ENCODING 47
SWIDTH 780 0
DWIDTH 13 0
BBX 12 11 0 0
BITMAP
0070
01F0
0000
03E0
0F80
0000
1F00
7C00
0000
F800
E000
ENDCHAR
STARTCHAR 0030
ENCODING 48
SWIDTH 600 0
DWIDTH 10 0
BBX 9 11 0 0
BITMAP
7F00
FF80
0000
E380
E380
0000
E380
E380
0000
FF80
7F00
ENDCHAR
STARTCHAR 0031
ENCODING 49
SWIDTH 240 0
DWIDTH 4 0
BBX 3 11 0 0
BITMAP
E0
E0
00
E0
E0
00
E0
E0
00
E0
E0
ENDCHAR
STARTCHAR 0032
ENCODING 50
SWIDTH 600 0
DWIDTH 10 0
BBX 9 11 0 0
BITMAP
FF00
FF80
0000
0380
7F80
0000
FF00
E000
0000
FF80
FF80
ENDCHAR
STARTCHAR 0033
ENCODING 51
SWIDTH 600 0
DWIDTH 10 0
BBX 9 11 0 0
BITMAP
FF00
FF80
0000
0380
1F80
0000
1F80
0380
0000
FF80
FF00
ENDCHAR
STARTCHAR 0034
ENCODING 52
SWIDTH 600 0
DWIDTH 10 0
BBX 9 11 0 0
BITMAP
E380
E380
0000
E380
FF80
0000
7F80
0380
0000
0380
0380
ENDCHAR
STARTCHAR 0035
ENCODING 53
SWIDTH 600 0
DWIDTH 10 0
BBX 9 11 0 0
BITMAP
FF80
FF80
0000
E000
FF00
0000
7F80
0380
0000
FF80
FF00
ENDCHAR
STARTCHAR 0036
ENCODING 54
SWIDTH 600 0
DWIDTH 10 0
BBX 9 11 0 0
BITMAP
7F80
FF80
0000
E000
FF00
0000
FF80
E380
0000
FF80
7F00
ENDCHAR
STARTCHAR 0037
ENCODING 55
SWIDTH 600 0
DWIDTH 10 0
BBX 9 11 0 0
BITMAP
FF00
FF80
0000
0380
0380
0000
0380
0380
0000
0380
0380
ENDCHAR
STARTCHAR 0038
ENCODING 56
SWIDTH 600 0
DWIDTH 10 0
BBX 9 11 0 0
BITMAP
7F00
FF80
0000
E380
FF80
0000
FF80
E380
0000
FF80
7F00
ENDCHAR
STARTCHAR 0039
ENCODING 57
SWIDTH 600 0
DWIDTH 10 0
BBX 9 11 0 0
BITMAP
7F00
FF80
0000
E380
FF80
0000
7F80
0380
0000
0380
0380
ENDCHAR
STARTCHAR 003A
ENCODING 58
SWIDTH 240 0
DWIDTH 4 0
BBX 3 11 0 0
BITMAP
E0
E0
00
00
00
00
00
00
00
E0
E0
ENDCHAR
STARTCHAR 003B
ENCODING 59
SWIDTH 240 0
DWIDTH 4 0
BBX 3 13 0 -2
BITMAP
E0
E0
00
00
00
00
00
00
00
E0
E0
00
E0
ENDCHAR
STARTCHAR 003C
ENCODING 60
SWIDTH 480 0
DWIDTH 8 0
BBX 8 11 0 0
BITMAP
0F
1F
00
7C
F8
00
F8
7C
00
1F
0F
ENDCHAR
STARTCHAR 003D
ENCODING 61
SWIDTH 600 0
DWIDTH 10 0
BBX 9 8 0 1
BITMAP
FF80
FF80
0000
0000
0000
0000
FF80
FF80
ENDCHAR
STARTCHAR 003E
ENCODING 62
SWIDTH 480 0
DWIDTH 8 0
BBX 8 11 0 0
BITMAP
E0
F8
00
7C
1F
00
1F
7C
00
F8
E0
ENDCHAR
STARTCHAR 003F
ENCODING 63
SWIDTH 600 0
DWIDTH 10 0
BBX 9 11 0 0
BITMAP
FF00
FF80
0000
0380
1F80
0000
1F00
0000
0000
1C00
1C00
ENDCHAR
STARTCHAR 0040
ENCODING 64
SWIDTH 780 0
DWIDTH 13 0
BBX 12 11 0 0
BITMAP
7FE0
FFF0
0000
E070
E3F0
0000
EFF0
EF70
0000
EFF0
E3E0
ENDCHAR
STARTCHAR 0041
ENCODING 65
SWIDTH 600 0
DWIDTH 10 0
BBX 9 11 0 0
BITMAP
7F00
FF80
0000
E380
FF80
0000
FF80
E380
0000
E380
E380
ENDCHAR
STARTCHAR 0042
ENCODING 66
SWIDTH 600 0
DWIDTH 10 0
BBX 9 11 0 0
BITMAP
FF00
FF80
0000
E380
FF00
0000
FF00
E380
0000
FF80
FF00
ENDCHAR
STARTCHAR 0043
ENCODING 67
SWIDTH 600 0
DWIDTH 10 0
BBX 9 11 0 0
BITMAP
7F80
FF80
0000
E000
E000
0000
E000
E000
0000
FF80
7F80
ENDCHAR
STARTCHAR 0044
ENCODING 68
SWIDTH 600 0
DWIDTH 10 0
BBX 9 11 0 0
BITMAP
FC00
FF00
0000
EF80
E380
0000
E380
EF80
0000
FF00
FC00
ENDCHAR
STARTCHAR 0045
ENCODING 69
SWIDTH 600 0
DWIDTH 10 0
BBX 9 11 0 0
BITMAP
7F80
FF80
0000
E000
FC00
0000
FC00
E000
0000
FF80
7F80
ENDCHAR
STARTCHAR 0046
ENCODING 70
SWIDTH 600 0
DWIDTH 10 0
BBX 9 11 0 0
BITMAP
7F80
FF80
0000
E000
FC00
0000
FC00
E000
0000
E000
E000
ENDCHAR
STARTCHAR 0047
ENCODING 71
SWIDTH 600 0
DWIDTH 10 0
BBX 9 11 0 0
BITMAP
7F80
FF80
0000
E000
EF80
0000
EF80
E380
0000
FF80
7F80
ENDCHAR
STARTCHAR 0048
ENCODING 72
SWIDTH 600 0
DWIDTH 10 0
BBX 9 11 0 0
BITMAP
E380
E380
0000
E380
FF80
0000
FF80
E380
0000
E380
E380
ENDCHAR
STARTCHAR 0049
ENCODING 73
SWIDTH 600 0
DWIDTH 10 0
BBX 9 11 0 0
BITMAP
FF80
FF80
0000
1C00
1C00
0000
1C00
1C00
0000
FF80
FF80
ENDCHAR
STARTCHAR 004A
ENCODING 74
SWIDTH 600 0
DWIDTH 10 0
BBX 9 11 0 0
BITMAP
0380
0380
0000
0380
0380
0000
0380
E380
0000
FF80
7F00
ENDCHAR
STARTCHAR 004B
ENCODING 75
SWIDTH 600 0
DWIDTH 10 0
BBX 9 11 0 0
BITMAP
E380
EF80
0000
FF00
FC00
0000
FC00
FF00
0000
EF80
E380
ENDCHAR
STARTCHAR 004C
ENCODING 76
SWIDTH 600 0
DWIDTH 10 0
BBX 9 11 0 0
BITMAP
E000
E000
0000
E000
E000
0000
E000
E000
0000
FF80
7F80
ENDCHAR
STARTCHAR 004D
ENCODING 77
SWIDTH 660 0
DWIDTH 11 0
BBX 11 11 0 0
BITMAP
E1E0
FBE0
0000
FFE0
FFE0
0000
EDE0
E1E0
0000
E1E0
E1E0
ENDCHAR
STARTCHAR 004E
ENCODING 78
SWIDTH 600 0
DWIDTH 10 0
BBX 9 11 0 0
BITMAP
E380
FB80
0000
FF80
FF80
0000
EF80
E380
0000
E380
E380
ENDCHAR
STARTCHAR 004F
ENCODING 79
SWIDTH 600 0
DWIDTH 10 0
BBX 9 11 0 0
BITMAP
7F00
FF80
0000
E380
E380
0000
E380
E380
0000
FF80
7F00
ENDCHAR
STARTCHAR 0050
ENCODING 80
SWIDTH 600 0
DWIDTH 10 0
BBX 9 11 0 0
BITMAP
FF00
FF80
0000
E380
FF80
0000
FF00
E000
0000
E000
E000
ENDCHAR
STARTCHAR 0051
ENCODING 81
SWIDTH 600 0
DWIDTH 10 0
BBX 9 11 0 0
BITMAP
7F00
FF80
0000
E380
E380
0000
E380
EF80
0000
FF80
7F80
ENDCHAR
STARTCHAR 0052
ENCODING 82
SWIDTH 600 0
DWIDTH 10 0
BBX 9 11 0 0
BITMAP
FF00
FF80
0000
E380
FF80
0000
FF00
EF80
0000
E380
E380
ENDCHAR
STARTCHAR 0053
ENCODING 83
SWIDTH 600 0
DWIDTH 10 0
BBX 9 11 0 0
BITMAP
7F80
FF80
0000
E000
FF00
0000
7F80
0380
0000
FF80
FF00
ENDCHAR
STARTCHAR 0054
ENCODING 84
SWIDTH 600 0
DWIDTH 10 0
BBX 9 11 0 0
BITMAP
FF80
FF80
0000
1C00
1C00
0000
1C00
1C00
0000
1C00
1C00
ENDCHAR
STARTCHAR 0055
ENCODING 85
SWIDTH 600 0
DWIDTH 10 0
BBX 9 11 0 0
BITMAP
E380
E380
0000
E380
E380
0000
E380
E380
0000
FF80
7F00
ENDCHAR
STARTCHAR 0056
ENCODING 86
SWIDTH 600 0
DWIDTH 10 0
BBX 9 11 0 0
BITMAP
E380
E380
0000
E380
E380
0000
E380
FF80
0000
7F00
1C00
ENDCHAR
STARTCHAR 0057
ENCODING 87
SWIDTH 660 0
DWIDTH 11 0
BBX 11 11 0 0
BITMAP
E1E0
E1E0
0000
E1E0
EDE0
0000
FFE0
FFE0
0000
FBE0
E1E0
ENDCHAR
STARTCHAR 0058
ENCODING 88
SWIDTH 600 0
DWIDTH 10 0
BBX 9 11 0 0
BITMAP
E380
E380
0000
FF80
7F00
0000
7F00
FF80
0000
E380
E380
ENDCHAR
STARTCHAR 0059
ENCODING 89
SWIDTH 600 0
DWIDTH 10 0
BBX 9 11 0 0
BITMAP
E380
E380
0000
E380
FF80
0000
7F00
1C00
0000
1C00
1C00
ENDCHAR
STARTCHAR 005A
ENCODING 90
SWIDTH 600 0
DWIDTH 10 0
BBX 9 11 0 0
BITMAP
FF80
FF80
0000
0F80
1F00
0000
7C00
F800
0000
FF80
FF80
ENDCHAR
STARTCHAR 005B
ENCODING 91
SWIDTH 300 0
DWIDTH 5 0
BBX 5 11 0 0
BITMAP
F8
F8
00
E0
E0
00
E0
E0
00
F8
F8
ENDCHAR
STARTCHAR 005C
ENCODING 92
SWIDTH 780 0
DWIDTH 13 0
BBX 12 11 0 0
BITMAP
E000
F800
0000
7C00
1F00
0000
0F80
03E0
0000
01F0
0070
ENDCHAR
STARTCHAR 005D
ENCODING 93
SWIDTH 300 0
DWIDTH 5 0
BBX 5 11 0 0
BITMAP
F8
F8
00
78
78
00
78
78
00
F8
F8
ENDCHAR
STARTCHAR 005E
ENCODING 94
SWIDTH 600 0
DWIDTH 10 0
BBX 9 5 0 6
BITMAP
1C00
7F00
0000
FF80
E380
ENDCHAR
STARTCHAR 005F
ENCODING 95
SWIDTH 600 0
DWIDTH 10 0
BBX 9 2 0 -2
BITMAP
FF80
FF80
ENDCHAR
STARTCHAR 0060
ENCODING 96
SWIDTH 240 0
DWIDTH 4 0
BBX 3 2 0 9
BITMAP
E0
E0
ENDCHAR
STARTCHAR 0061
ENCODING 97
SWIDTH 600 0
DWIDTH 10 0
BBX 9 11 0 0
BITMAP
7F00
FF80
0000
E380
FF80
0000
FF80
E380
0000
E380
E380
ENDCHAR
STARTCHAR 0062
ENCODING 98
SWIDTH 600 0
DWIDTH 10 0
BBX 9 11 0 0
BITMAP
FF00
FF80
0000
E380
FF80
0000
FF80
E380
0000
FF80
FF00
ENDCHAR
STARTCHAR 0063
ENCODING 99
SWIDTH 600 0
DWIDTH 10 0
BBX 9 11 0 0
BITMAP
7F00
FF80
0000
E380
E000
0000
E000
E380
0000
FF80
7F00
ENDCHAR
STARTCHAR 0064
ENCODING 100
SWIDTH 600 0
DWIDTH 10 0
BBX 9 11 0 0
BITMAP
FF00
FF80
0000
E380
E380
0000
E380
E380
0000
FF80
FF00
ENDCHAR
STARTCHAR 0065
ENCODING 101
SWIDTH 600 0
DWIDTH 10 0
BBX 9 11 0 0
BITMAP
7F80
FF80
0000
E000
FC00
0000
FC00
E000
0000
FF80
7F80
ENDCHAR
STARTCHAR 0066
ENCODING 102
SWIDTH 600 0
DWIDTH 10 0
BBX 9 11 0 0
BITMAP
7F80
FF80
0000
E000
FC00
0000
FC00
E000
0000
E000
E000
ENDCHAR
STARTCHAR 0067
ENCODING 103
SWIDTH 600 0
DWIDTH 10 0
BBX 9 11 0 0
BITMAP
7F80
FF80
0000
E000
EF80
0000
EF80
E380
0000
FF80
7F00
ENDCHAR
STARTCHAR 0068
ENCODING 104
SWIDTH 600 0
DWIDTH 10 0
BBX 9 11 0 0
BITMAP
E380
E380
0000
E380
FF80
0000
FF80
E380
0000
E380
E380
ENDCHAR
STARTCHAR 0069
ENCODING 105
SWIDTH 240 0
DWIDTH 4 0
BBX 3 11 0 0
BITMAP
E0
E0
00
E0
E0
00
E0
E0
00
E0
E0
ENDCHAR
STARTCHAR 006A
ENCODING 106
SWIDTH 600 0
DWIDTH 10 0
BBX 9 11 0 0
BITMAP
0380
0380
0000
0380
0380
0000
0380
E380
0000
FF80
7F00
ENDCHAR
STARTCHAR 006B
ENCODING 107
SWIDTH 600 0
DWIDTH 10 0
BBX 9 11 0 0
BITMAP
E380
EF80
0000
FF00
FC00
0000
FC00
FF00
0000
EF80
E380
ENDCHAR
STARTCHAR 006C
ENCODING 108
SWIDTH 600 0
DWIDTH 10 0
BBX 9 11 0 0
BITMAP
E000
E000
0000
E000
E000
0000
E000
E000
0000
FF80
7F80
ENDCHAR
STARTCHAR 006D
ENCODING 109
SWIDTH 780 0
DWIDTH 13 0
BBX 12 11 0 0
BITMAP
7FE0
FFF0
0000
EF70
EF70
0000
EF70
EF70
0000
EF70
EF70
ENDCHAR
STARTCHAR 006E
ENCODING 110
SWIDTH 600 0
DWIDTH 10 0
BBX 9 11 0 0
BITMAP
7F00
FF80
0000
E380
E380
0000
E380
E380
0000
E380
E380
ENDCHAR
STARTCHAR 006F
ENCODING 111
SWIDTH 600 0
DWIDTH 10 0
BBX 9 11 0 0
BITMAP
7F00
FF80
0000
E380
E380
0000
E380
E380
0000
FF80
7F00
ENDCHAR
STARTCHAR 0070
ENCODING 112
SWIDTH 600 0
DWIDTH 10 0
BBX 9 11 0 0
BITMAP
7F00
FF80
0000
E380
FF80
0000
FF00
E000
0000
E000
E000
ENDCHAR
STARTCHAR 0071
ENCODING 113
SWIDTH 600 0
DWIDTH 10 0
BBX 9 13 0 -2
BITMAP
7F00
FF80
0000
E380
E380
0000
E380
E380
0000
FF80
7F00
0000
1C00
ENDCHAR
STARTCHAR 0072
ENCODING 114
SWIDTH 600 0
DWIDTH 10 0
BBX 9 11 0 0
BITMAP
7F00
FF80
0000
E380
FF80
0000
FF00
EF80
0000
E380
E380
ENDCHAR
STARTCHAR 0073
ENCODING 115
SWIDTH 600 0
DWIDTH 10 0
BBX 9 11 0 0
BITMAP
7F80
FF80
0000
E000
FF00
0000
7F80
0380
0000
FF80
FF00
ENDCHAR
STARTCHAR 0074
ENCODING 116
SWIDTH 600 0
DWIDTH 10 0
BBX 9 11 0 0
BITMAP
FF80
FF80
0000
1C00
1C00
0000
1C00
1C00
0000
1C00
1C00
ENDCHAR
STARTCHAR 0075
ENCODING 117
SWIDTH 600 0
DWIDTH 10 0
BBX 9 11 0 0
BITMAP
E380
E380
0000
E380
E380
0000
E380
E380
0000
FF80
7F00
ENDCHAR
STARTCHAR 0076
ENCODING 118
SWIDTH 600 0
DWIDTH 10 0
BBX 9 11 0 0
BITMAP
E380
E380
0000
E380
E380
0000
EF80
FF00
0000
FC00
F800
ENDCHAR
STARTCHAR 0077
ENCODING 119
SWIDTH 780 0
DWIDTH 13 0
BBX 12 11 0 0
BITMAP
EF70
EF70
0000
EF70
EF70
0000
EF70
EF70
0000
FFF0
7FE0
ENDCHAR
STARTCHAR 0078
ENCODING 120
SWIDTH 600 0
DWIDTH 10 0
BBX 9 11 0 0
BITMAP
E380
E380
0000
FF80
7F00
0000
7F00
FF80
0000
E380
E380
ENDCHAR
STARTCHAR 0079
ENCODING 121
SWIDTH 600 0
DWIDTH 10 0
BBX 9 11 0 0
BITMAP
E380
E380
0000
E380
FF80
0000
7F00
1C00
0000
1C00
1C00
ENDCHAR
STARTCHAR 007A
ENCODING 122
SWIDTH 600 0
DWIDTH 10 0
BBX 9 11 0 0
BITMAP
FF80
FF80
0000
0F80
1F00
0000
7C00
F800
0000
FF80
FF80
ENDCHAR
STARTCHAR 007B
ENCODING 123
SWIDTH 420 0
DWIDTH 7 0
BBX 6 11 0 0
BITMAP
1C
7C
00
78
F8
00
F8
78
00
7C
1C
ENDCHAR
STARTCHAR 007C
ENCODING 124
SWIDTH 240 0
DWIDTH 4 0
BBX 3 15 0 -2
BITMAP
E0
00
E0
E0
00
E0
E0
00
E0
E0
00
E0
E0
00
E0
ENDCHAR
STARTCHAR 007D
ENCODING 125
SWIDTH 420 0
DWIDTH 7 0
BBX 6 11 0 0
BITMAP
E0
F8
00
78
7C
00
7C
78
00
F8
E0
ENDCHAR
STARTCHAR 007E
ENCODING 126
SWIDTH 660 0
DWIDTH 11 0
BBX 11 5 0 3
BITMAP
7C00
FDE0
0000
EFE0
0F80
ENDCHAR
STARTCHAR 007F
ENCODING 127
SWIDTH 600 0
DWIDTH 10 0
BBX 9 11 0 0
BITMAP
FF80
FF80
0000
FF80
FF80
0000
FF80
FF80
0000
FF80
FF80
ENDCHAR
STARTCHAR 0080
ENCODING 128
SWIDTH 600 0
DWIDTH 10 0
BBX 9 11 0 0
BITMAP
FF80
FF80
0000
FF80
FF80
0000
FF80
FF80
0000
FF80
FF80
ENDCHAR
STARTCHAR 0081
ENCODING 129
SWIDTH 600 0
DWIDTH 10 0
BBX 9 11 0 0
BITMAP
FF80
FF80
0000
FF80
FF80
0000
FF80
FF80
0000
FF80
FF80
ENDCHAR
STARTCHAR 008D
ENCODING 141
SWIDTH 600 0
DWIDTH 10 0
BBX 9 11 0 0
BITMAP
FF80
FF80
0000
FF80
FF80
0000
FF80
FF80
0000
FF80
FF80
ENDCHAR
STARTCHAR 008E
ENCODING 142
SWIDTH 600 0
DWIDTH 10 0
BBX 9 11 0 0
BITMAP
FF80
FF80
0000
FF80
FF80
0000
FF80
FF80
0000
FF80
FF80
ENDCHAR
STARTCHAR 008F
ENCODING 143
SWIDTH 600 0
DWIDTH 10 0
BBX 9 11 0 0
BITMAP
FF80
FF80
0000
FF80
FF80
0000
FF80
FF80
0000
FF80
FF80
ENDCHAR
STARTCHAR 0090
ENCODING 144
SWIDTH 600 0
DWIDTH 10 0
BBX 9 11 0 0
BITMAP
FF80
FF80
0000
FF80
FF80
0000
FF80
FF80
0000
FF80
FF80
ENDCHAR
STARTCHAR 009D
ENCODING 157
SWIDTH 600 0
DWIDTH 10 0
BBX 9 11 0 0
BITMAP
FF80
FF80
0000
FF80
FF80
0000
FF80
FF80
0000
FF80
FF80
ENDCHAR
STARTCHAR 009E
ENCODING 158
SWIDTH 600 0
DWIDTH 10 0
BBX 9 11 0 0
BITMAP
FF80
FF80
0000
FF80
FF80
0000
FF80
FF80
0000
FF80
FF80
ENDCHAR
STARTCHAR 00A0
ENCODING 160
SWIDTH 600 0
DWIDTH 10 0
BBX 0 0 0 0
BITMAP
ENDCHAR
STARTCHAR 00A1
ENCODING 161
SWIDTH 240 0
DWIDTH 4 0
BBX 3 11 0 0
BITMAP
E0
E0
00
00
E0
00
E0
E0
00
E0
E0
ENDCHAR
STARTCHAR 00A2
ENCODING 162
SWIDTH 600 0
DWIDTH 10 0
BBX 9 17 0 -3
BITMAP
1C00
1C00
0000
7F00
FF80
0000
E380
E000
0000
E000
E380
0000
FF80
7F00
0000
1C00
1C00
ENDCHAR
STARTCHAR 00A3
ENCODING 163
SWIDTH 660 0
DWIDTH 11 0
BBX 11 11 0 0
BITMAP
1F80
7FE0
0000
79E0
FC00
0000
FC00
79E0
0000
FFE0
FF80
ENDCHAR
STARTCHAR 00A4
ENCODING 164
SWIDTH 780 0
DWIDTH 13 0
BBX 12 11 0 0
BITMAP
E070
DFB0
0000
7FE0
79E0
0000
79E0
7FE0
0000
DFB0
E070
ENDCHAR
STARTCHAR 00A5
ENCODING 165
SWIDTH 600 0
DWIDTH 10 0
BBX 9 11 0 0
BITMAP
E380
E380
0000
E380
FF80
0000
7F00
FF80
0000
1C00
FF80
ENDCHAR
STARTCHAR 00A6
ENCODING 166
SWIDTH 240 0
DWIDTH 4 0
BBX 3 15 0 -2
BITMAP
E0
00
E0
E0
00
E0
00
00
00
E0
00
E0
E0
00
E0
ENDCHAR
STARTCHAR 00A7
ENCODING 167
SWIDTH 600 0
DWIDTH 10 0
BBX 9 16 0 -2
BITMAP
7F80
FF80
0000
E000
FF00
0000
FF80
E380
0000
FF80
7F80
0000
0380
FF80
0000
FF00
ENDCHAR
STARTCHAR 00A8
ENCODING 168
SWIDTH 420 0
DWIDTH 7 0
BBX 6 1 0 13
BITMAP
CC
ENDCHAR
STARTCHAR 00A9
ENCODING 169
SWIDTH 840 0
DWIDTH 14 0
BBX 14 14 0 -2
BITMAP
7FF0
FFFC
0000
E03C
E3BC
0000
EC3C
EC3C
0000
E3BC
E03C
0000
FFFC
7FF0
ENDCHAR
STARTCHAR 00AA
ENCODING 170
SWIDTH 600 0
DWIDTH 10 0
BBX 9 11 0 3
BITMAP
1F00
1F80
0380
0000
7F80
FF80
0000
E380
FF80
0000
7F80
ENDCHAR
STARTCHAR 00AB
ENCODING 171
SWIDTH 780 0
DWIDTH 13 0
BBX 12 8 0 1
BITMAP
1C70
7DF0
0000
FBE0
FBE0
0000
7DF0
1C70
ENDCHAR
STARTCHAR 00AC
ENCODING 172
SWIDTH 600 0
DWIDTH 10 0
BBX 9 5 0 1
BITMAP
FF80
FF80
0000
0380
0380
ENDCHAR
STARTCHAR 00AD
ENCODING 173
SWIDTH 420 0
DWIDTH 7 0
BBX 6 2 0 4
BITMAP
FC
FC
ENDCHAR
STARTCHAR 00AE
ENCODING 174
SWIDTH 840 0
DWIDTH 14 0
BBX 14 14 0 -2
BITMAP
7FF0
FFFC
0000
E03C
EFBC
0000
EDBC
EF3C
0000
EDBC
E03C
0000
FFFC
7FF0
ENDCHAR
STARTCHAR 00AF
ENCODING 175
SWIDTH 600 0
DWIDTH 10 0
BBX 9 2 0 12
BITMAP
FF80
FF80
ENDCHAR
STARTCHAR 00B0
ENCODING 176
SWIDTH 300 0
DWIDTH 5 0
BBX 5 4 0 10
BITMAP
F8
00
D8
F8
ENDCHAR
STARTCHAR 00B1
ENCODING 177
SWIDTH 600 0
DWIDTH 10 0
BBX 9 11 0 0
BITMAP
1C00
1C00
0000
FF80
FF80
0000
1C00
1C00
0000
FF80
FF80
ENDCHAR
STARTCHAR 00B2
ENCODING 178
SWIDTH 300 0
DWIDTH 5 0
BBX 5 6 0 8
BITMAP
F8
18
F8
00
C0
F8
ENDCHAR
STARTCHAR 00B3
ENCODING 179
SWIDTH 300 0
DWIDTH 5 0
BBX 5 6 0 8
BITMAP
F8
18
78
00
18
F8
ENDCHAR
STARTCHAR 00B4
ENCODING 180
SWIDTH 240 0
DWIDTH 4 0
BBX 3 2 0 12
BITMAP
60
C0
ENDCHAR
STARTCHAR 00B5
ENCODING 181
SWIDTH 600 0
DWIDTH 10 0
BBX 9 14 0 -3
BITMAP
E380
E380
0000
E380
E380
0000
E380
E380
0000
FF80
FF00
0000
E000
E000
ENDCHAR
STARTCHAR 00B6
ENCODING 182
SWIDTH 780 0
DWIDTH 13 0
BBX 12 11 0 0
BITMAP
7FF0
FFF0
0000
FDE0
FDE0
0000
7DE0
1DE0
0000
1DE0
1DE0
ENDCHAR
STARTCHAR 00B7
ENCODING 183
SWIDTH 240 0
DWIDTH 4 0
BBX 3 2 0 4
BITMAP
E0
E0
ENDCHAR
STARTCHAR 00B8
ENCODING 184
SWIDTH 240 0
DWIDTH 4 0
BBX 3 2 0 -3
BITMAP
60
E0
ENDCHAR
STARTCHAR 00B9
ENCODING 185
SWIDTH 120 0
DWIDTH 2 0
BBX 2 6 0 8
BITMAP
C0
C0
C0
00
C0
C0
ENDCHAR
STARTCHAR 00BA
ENCODING 186
SWIDTH 300 0
DWIDTH 5 0
BBX 5 6 0 8
BITMAP
F8
D8
D8
00
D8
F8
ENDCHAR
STARTCHAR 00BB
ENCODING 187
SWIDTH 780 0
DWIDTH 13 0
BBX 12 8 0 1
BITMAP
E380
FBE0
0000
7DF0
7DF0
0000
FBE0
E380
ENDCHAR
STARTCHAR 00BC
ENCODING 188
SWIDTH 780 0
DWIDTH 13 0
BBX 12 14 0 -2
BITMAP
6000
6070
0000
61F0
63E0
0000
6F80
1FB0
0000
7DB0
F9F0
0000
E030
0030
ENDCHAR
STARTCHAR 00BD
ENCODING 189
SWIDTH 780 0
DWIDTH 13 0
BBX 12 14 0 -2
BITMAP
6000
6070
0000
61F0
63E0
0000
6F80
1FF0
0000
7C30
F9F0
0000
E180
01F0
ENDCHAR
STARTCHAR 00BE
ENCODING 190
SWIDTH 780 0
DWIDTH 13 0
BBX 12 14 0 -2
BITMAP
F800
1870
0000
79F0
1BE0
0000
FF80
1FB0
0000
7DB0
F9F0
0000
E030
0030
ENDCHAR
STARTCHAR 00BF
ENCODING 191
SWIDTH 600 0
DWIDTH 10 0
BBX 9 11 0 0
BITMAP
1C00
1C00
0000
0000
7C00
0000
FC00
E000
0000
FF80
7F80
ENDCHAR
STARTCHAR 00C0
ENCODING 192
SWIDTH 600 0
DWIDTH 10 0
BBX 9 14 0 0
BITMAP
1800
0C00
0000
7F00
FF80
0000
E380
FF80
0000
FF80
E380
0000
E380
E380
ENDCHAR
STARTCHAR 00C1
ENCODING 193
SWIDTH 600 0
DWIDTH 10 0
BBX 9 14 0 0
BITMAP
0C00
1800
0000
7F00
FF80
0000
E380
FF80
0000
FF80
E380
0000
E380
E380
ENDCHAR
STARTCHAR 00C2
ENCODING 194
SWIDTH 600 0
DWIDTH 10 0
BBX 9 14 0 0
BITMAP
1C00
6300
0000
7F00
FF80
0000
E380
FF80
0000
FF80
E380
0000
E380
E380
ENDCHAR
STARTCHAR 00C3
ENCODING 195
SWIDTH 600 0
DWIDTH 10 0
BBX 9 14 0 0
BITMAP
7B00
6F00
0000
7F00
FF80
0000
E380
FF80
0000
FF80
E380
0000
E380
E380
ENDCHAR
STARTCHAR 00C4
ENCODING 196
SWIDTH 600 0
DWIDTH 10 0
BBX 9 14 0 0
BITMAP
6300
0000
0000
7F00
FF80
0000
E380
FF80
0000
FF80
E380
0000
E380
E380
ENDCHAR
STARTCHAR 00C5
ENCODING 197
SWIDTH 600 0
DWIDTH 10 0
BBX 9 14 0 0
BITMAP
7F00
6300
0000
7F00
FF80
0000
E380
FF80
0000
FF80
E380
0000
E380
E380
ENDCHAR
STARTCHAR 00C6
ENCODING 198
SWIDTH 960 0
DWIDTH 16 0
BBX 15 11 0 0
BITMAP
7FFE
FFFE
0000
E380
FFF0
0000
FFF0
E380
0000
E3FE
E1FE
ENDCHAR
STARTCHAR 00C7
ENCODING 199
SWIDTH 600 0
DWIDTH 10 0
BBX 9 14 0 -3
BITMAP
7F80
FF80
0000
E000
E000
0000
E000
E000
0000
FF80
7F80
0000
0C00
1C00
ENDCHAR
STARTCHAR 00C8
ENCODING 200
SWIDTH 600 0
DWIDTH 10 0
BBX 9 14 0 0
BITMAP
1800
0C00
0000
7F80
FF80
0000
E000
FC00
0000
FC00
E000
0000
FF80
7F80
ENDCHAR
STARTCHAR 00C9
ENCODING 201
SWIDTH 600 0
DWIDTH 10 0
BBX 9 14 0 0
BITMAP
0C00
1800
0000
7F80
FF80
0000
E000
FC00
0000
FC00
E000
0000
FF80
7F80
ENDCHAR
STARTCHAR 00CA
ENCODING 202
SWIDTH 600 0
DWIDTH 10 0
BBX 9 14 0 0
BITMAP
1C00
6300
0000
7F80
FF80
0000
E000
FC00
0000
FC00
E000
0000
FF80
7F80
ENDCHAR
STARTCHAR 00CB
ENCODING 203
SWIDTH 600 0
DWIDTH 10 0
BBX 9 14 0 0
BITMAP
6300
0000
0000
7F80
FF80
0000
E000
FC00
0000
FC00
E000
0000
FF80
7F80
ENDCHAR
STARTCHAR 00CC
ENCODING 204
SWIDTH 600 0
DWIDTH 10 0
BBX 9 14 0 0
BITMAP
1800
0C00
0000
FF80
FF80
0000
1C00
1C00
0000
1C00
1C00
0000
FF80
FF80
ENDCHAR
STARTCHAR 00CD
ENCODING 205
SWIDTH 600 0
DWIDTH 10 0
BBX 9 14 0 0
BITMAP
0C00
1800
0000
FF80
FF80
0000
1C00
1C00
0000
1C00
1C00
0000
FF80
FF80
ENDCHAR
STARTCHAR 00CE
ENCODING 206
SWIDTH 600 0
DWIDTH 10 0
BBX 9 14 0 0
BITMAP
1C00
6300
0000
FF80
FF80
0000
1C00
1C00
0000
1C00
1C00
0000
FF80
FF80
ENDCHAR
STARTCHAR 00CF
ENCODING 207
SWIDTH 600 0
DWIDTH 10 0
BBX 9 14 0 0
BITMAP
6300
0000
0000
FF80
FF80
0000
1C00
1C00
0000
1C00
1C00
0000
FF80
FF80
ENDCHAR
STARTCHAR 00D0
ENCODING 208
SWIDTH 660 0
DWIDTH 11 0
BBX 11 11 0 0
BITMAP
7F80
7FE0
0000
79E0
FDE0
0000
FDE0
79E0
0000
7FE0
7F80
ENDCHAR
STARTCHAR 00D1
ENCODING 209
SWIDTH 600 0
DWIDTH 10 0
BBX 9 14 0 0
BITMAP
7B00
6F00
0000
E380
FB80
0000
FF80
FF80
0000
EF80
E380
0000
E380
E380
ENDCHAR
STARTCHAR 00D2
ENCODING 210
SWIDTH 600 0
DWIDTH 10 0
BBX 9 14 0 0
BITMAP
1800
0C00
0000
7F00
FF80
0000
E380
E380
0000
E380
E380
0000
FF80
7F00
ENDCHAR
STARTCHAR 00D3
ENCODING 211
SWIDTH 600 0
DWIDTH 10 0
BBX 9 14 0 0
BITMAP
0C00
1800
0000
7F00
FF80
0000
E380
E380
0000
E380
E380
0000
FF80
7F00
ENDCHAR
STARTCHAR 00D4
ENCODING 212
SWIDTH 600 0
DWIDTH 10 0
BBX 9 14 0 0
BITMAP
1C00
6300
0000
7F00
FF80
0000
E380
E380
0000
E380
E380
0000
FF80
7F00
ENDCHAR
STARTCHAR 00D5
ENCODING 213
SWIDTH 600 0
DWIDTH 10 0
BBX 9 14 0 0
BITMAP
7B00
6F00
0000
7F00
FF80
0000
E380
E380
0000
E380
E380
0000
FF80
7F00
ENDCHAR
STARTCHAR 00D6
ENCODING 214
SWIDTH 600 0
DWIDTH 10 0
BBX 9 14 0 0
BITMAP
6300
0000
0000
7F00
FF80
0000
E380
E380
0000
E380
E380
0000
FF80
7F00
ENDCHAR
STARTCHAR 00D7
ENCODING 215
SWIDTH 480 0
DWIDTH 8 0
BBX 8 7 0 3
BITMAP
EF
00
FF
7C
00
FF
EF
ENDCHAR
STARTCHAR 00D8
ENCODING 216
SWIDTH 600 0
DWIDTH 10 0
BBX 9 15 0 -2
BITMAP
0180
0000
7F80
FF80
0000
E380
EF80
0000
FB80
E380
0000
FF80
FF00
0000
C000
ENDCHAR
STARTCHAR 00D9
ENCODING 217
SWIDTH 600 0
DWIDTH 10 0
BBX 9 14 0 0
BITMAP
1800
0C00
0000
E380
E380
0000
E380
E380
0000
E380
E380
0000
FF80
7F00
ENDCHAR
STARTCHAR 00DA
ENCODING 218
SWIDTH 600 0
DWIDTH 10 0
BBX 9 14 0 0
BITMAP
0C00
1800
0000
E380
E380
0000
E380
E380
0000
E380
E380
0000
FF80
7F00
ENDCHAR
STARTCHAR 00DB
ENCODING 219
SWIDTH 600 0
DWIDTH 10 0
BBX 9 14 0 0
BITMAP
1C00
6300
0000
E380
E380
0000
E380
E380
0000
E380
E380
0000
FF80
7F00
ENDCHAR
STARTCHAR 00DC
ENCODING 220
SWIDTH 600 0
DWIDTH 10 0
BBX 9 14 0 0
BITMAP
6300
0000
0000
E380
E380
0000
E380
E380
0000
E380
E380
0000
FF80
7F00
ENDCHAR
STARTCHAR 00DD
ENCODING 221
SWIDTH 600 0
DWIDTH 10 0
BBX 9 14 0 0
BITMAP
0C00
1800
0000
E380
E380
0000
E380
FF80
0000
7F00
1C00
0000
1C00
1C00
ENDCHAR
STARTCHAR 00DE
ENCODING 222
SWIDTH 600 0
DWIDTH 10 0
BBX 9 11 0 0
BITMAP
E000
FF00
0000
FF80
E380
0000
E380
FF80
0000
FF00
E000
ENDCHAR
STARTCHAR 00DF
ENCODING 223
SWIDTH 600 0
DWIDTH 10 0
BBX 9 11 0 0
BITMAP
FF00
FF80
0000
E380
EF00
0000
EF00
E380
0000
EF80
EF00
ENDCHAR
STARTCHAR 00E0
ENCODING 224
SWIDTH 600 0
DWIDTH 10 0
BBX 9 14 0 0
BITMAP
1800
0C00
0000
7F00
FF80
0000
E380
FF80
0000
FF80
E380
0000
E380
E380
ENDCHAR
STARTCHAR 00E1
ENCODING 225
SWIDTH 600 0
DWIDTH 10 0
BBX 9 14 0 0
BITMAP
0C00
1800
0000
7F00
FF80
0000
E380
FF80
0000
FF80
E380
0000
E380
E380
ENDCHAR
STARTCHAR 00E2
ENCODING 226
SWIDTH 600 0
DWIDTH 10 0
BBX 9 14 0 0
BITMAP
1C00
6300
0000
7F00
FF80
0000
E380
FF80
0000
FF80
E380
0000
E380
E380
ENDCHAR
STARTCHAR 00E3
ENCODING 227
SWIDTH 600 0
DWIDTH 10 0
BBX 9 14 0 0
BITMAP
7B00
6F00
0000
7F00
FF80
0000
E380
FF80
0000
FF80
E380
0000
E380
E380
ENDCHAR
STARTCHAR 00E4
ENCODING 228
SWIDTH 600 0
DWIDTH 10 0
BBX 9 14 0 0
BITMAP
6300
0000
0000
7F00
FF80
0000
E380
FF80
0000
FF80
E380
0000
E380
E380
ENDCHAR
STARTCHAR 00E5
ENCODING 229
SWIDTH 600 0
DWIDTH 10 0
BBX 9 14 0 0
BITMAP
7F00
6300
0000
7F00
FF80
0000
E380
FF80
0000
FF80
E380
0000
E380
E380
ENDCHAR
STARTCHAR 00E6
ENCODING 230
SWIDTH 960 0
DWIDTH 16 0
BBX 15 11 0 0
BITMAP
7FFE
FFFE
0000
E380
FFF0
0000
FFF0
E380
0000
E3FE
E1FE
ENDCHAR
STARTCHAR 00E7
ENCODING 231
SWIDTH 600 0
DWIDTH 10 0
BBX 9 14 0 -3
BITMAP
7F00
FF80
0000
E380
E000
0000
E000
E380
0000
FF80
7F00
0000
0C00
1C00
ENDCHAR
STARTCHAR 00E8
ENCODING 232
SWIDTH 600 0
DWIDTH 10 0
BBX 9 14 0 0
BITMAP
1800
0C00
0000
7F80
FF80
0000
E000
FC00
0000
FC00
E000
0000
FF80
7F80
ENDCHAR
STARTCHAR 00E9
ENCODING 233
SWIDTH 600 0
DWIDTH 10 0
BBX 9 14 0 0
BITMAP
0C00
1800
0000
7F80
FF80
0000
E000
FC00
0000
FC00
E000
0000
FF80
7F80
ENDCHAR
STARTCHAR 00EA
ENCODING 234
SWIDTH 600 0
DWIDTH 10 0
BBX 9 14 0 0
BITMAP
1C00
6300
0000
7F80
FF80
0000
E000
FC00
0000
FC00
E000
0000
FF80
7F80
ENDCHAR
STARTCHAR 00EB
ENCODING 235
SWIDTH 600 0
DWIDTH 10 0
BBX 9 14 0 0
BITMAP
6300
0000
0000
7F80
FF80
0000
E000
FC00
0000
FC00
E000
0000
FF80
7F80
ENDCHAR
STARTCHAR 00EC
ENCODING 236
SWIDTH 240 0
DWIDTH 4 0
BBX 3 14 0 0
BITMAP
C0
60
00
E0
E0
00
E0
E0
00
E0
E0
00
E0
E0
ENDCHAR
STARTCHAR 00ED
ENCODING 237
SWIDTH 240 0
DWIDTH 4 0
BBX 3 14 0 0
BITMAP
60
C0
00
E0
E0
00
E0
E0
00
E0
E0
00
E0
E0
ENDCHAR
STARTCHAR 00EE
ENCODING 238
SWIDTH 240 0
DWIDTH 4 0
BBX 7 14 -2 0
BITMAP
38
C6
00
38
38
00
38
38
00
38
38
00
38
38
ENDCHAR
STARTCHAR 00EF
ENCODING 239
SWIDTH 240 0
DWIDTH 4 0
BBX 7 14 -2 0
BITMAP
C6
00
00
38
38
00
38
38
00
38
38
00
38
38
ENDCHAR
STARTCHAR 00F0
ENCODING 240
SWIDTH 600 0
DWIDTH 10 0
BBX 9 14 0 0
BITMAP
0300
1C00
0000
1F00
6F80
0000
0380
7F80
0000
FF80
E380
0000
FF80
7F80
ENDCHAR
STARTCHAR 00F1
ENCODING 241
SWIDTH 600 0
DWIDTH 10 0
BBX 9 14 0 0
BITMAP
7B00
6F00
0000
7F00
FF80
0000
E380
E380
0000
E380
E380
0000
E380
E380
ENDCHAR
STARTCHAR 00F2
ENCODING 242
SWIDTH 600 0
DWIDTH 10 0
BBX 9 14 0 0
BITMAP
1800
0C00
0000
7F00
FF80
0000
E380
E380
0000
E380
E380
0000
FF80
7F00
ENDCHAR
STARTCHAR 00F3
ENCODING 243
SWIDTH 600 0
DWIDTH 10 0
BBX 9 14 0 0
BITMAP
0C00
1800
0000
7F00
FF80
0000
E380
E380
0000
E380
E380
0000
FF80
7F00
ENDCHAR
STARTCHAR 00F4
ENCODING 244
SWIDTH 600 0
DWIDTH 10 0
BBX 9 14 0 0
BITMAP
1C00
6300
0000
7F00
FF80
0000
E380
E380
0000
E380
E380
0000
FF80
7F00
ENDCHAR
STARTCHAR 00F5
ENCODING 245
SWIDTH 600 0
DWIDTH 10 0
BBX 9 14 0 0
BITMAP
7B00
6F00
0000
7F00
FF80
0000
E380
E380
0000
E380
E380
0000
FF80
7F00
ENDCHAR
STARTCHAR 00F6
ENCODING 246
SWIDTH 600 0
DWIDTH 10 0
BBX 9 14 0 0
BITMAP
6300
0000
0000
7F00
FF80
0000
E380
E380
0000
E380
E380
0000
FF80
7F00
ENDCHAR
STARTCHAR 00F7
ENCODING 247
SWIDTH 600 0
DWIDTH 10 0
BBX 9 11 0 0
BITMAP
1C00
1C00
0000
0000
FF80
0000
FF80
0000
0000
1C00
1C00
ENDCHAR
STARTCHAR 00F8
ENCODING 248
SWIDTH 600 0
DWIDTH 10 0
BBX 9 15 0 -2
BITMAP
0180
0000
7F80
FF80
0000
E380
EF80
0000
FB80
E380
0000
FF80
FF00
0000
C000
ENDCHAR
STARTCHAR 00F9
ENCODING 249
SWIDTH 600 0
DWIDTH 10 0
BBX 9 14 0 0
BITMAP
1800
0C00
0000
E380
E380
0000
E380
E380
0000
E380
E380
0000
FF80
7F00
ENDCHAR
STARTCHAR 00FA
ENCODING 250
SWIDTH 600 0
DWIDTH 10 0
BBX 9 14 0 0
BITMAP
0C00
1800
0000
E380
E380
0000
E380
E380
0000
E380
E380
0000
FF80
7F00
ENDCHAR
STARTCHAR 00FB
ENCODING 251
SWIDTH 600 0
DWIDTH 10 0
BBX 9 14 0 0
BITMAP
1C00
6300
0000
E380
E380
0000
E380
E380
0000
E380
E380
0000
FF80
7F00
ENDCHAR
STARTCHAR 00FC
ENCODING 252
SWIDTH 600 0
DWIDTH 10 0
BBX 9 14 0 0
BITMAP
6300
0000
0000
E380
E380
0000
E380
E380
0000
E380
E380
0000
FF80
7F00
ENDCHAR
STARTCHAR 00FD
ENCODING 253
SWIDTH 600 0
DWIDTH 10 0
BBX 9 14 0 0
BITMAP
0C00
1800
0000
E380
E380
0000
E380
FF80
0000
7F00
1C00
0000
1C00
1C00
ENDCHAR
STARTCHAR 00FE
ENCODING 254
SWIDTH 600 0
DWIDTH 10 0
BBX 9 15 0 -2
BITMAP
E000
0000
E000
FF00
0000
FF80
E380
0000
E380
FF80
0000
FF00
E000
0000
E000
ENDCHAR
STARTCHAR 00FF
ENCODING 255
SWIDTH 600 0
DWIDTH 10 0
BBX 9 14 0 0
BITMAP
6300
0000
0000
E380
E380
0000
E380
FF80
0000
7F00
1C00
0000
1C00
1C00
ENDCHAR
STARTCHAR 0152
ENCODING 338
SWIDTH 960 0
DWIDTH 16 0
BBX 15 11 0 0
BITMAP
7FFE
FFFE
0000
E380
E3F0
0000
E3F0
E380
0000
FFFE
7FFE
ENDCHAR
STARTCHAR 0153
ENCODING 339
SWIDTH 960 0
DWIDTH 16 0
BBX 15 11 0 0
BITMAP
7FFE
FFFE
0000
E380
E3F0
0000
E3F0
E380
0000
FFFE
7FFE
ENDCHAR
STARTCHAR 0160
ENCODING 352
SWIDTH 600 0
DWIDTH 10 0
BBX 9 14 0 0
BITMAP
6300
1C00
0000
7F80
FF80
0000
E000
FF00
0000
7F80
0380
0000
FF80
FF00
ENDCHAR
STARTCHAR 0161
ENCODING 353
SWIDTH 600 0
DWIDTH 10 0
BBX 9 14 0 0
BITMAP
6300
1C00
0000
7F80
FF80
0000
E000
FF00
0000
7F80
0380
0000
FF80
FF00
ENDCHAR
STARTCHAR 0178
ENCODING 376
SWIDTH 600 0
DWIDTH 10 0
BBX 9 14 0 0
BITMAP
6300
0000
0000
E380
E380
0000
E380
FF80
0000
7F00
1C00
0000
1C00
1C00
ENDCHAR
STARTCHAR 0192
ENCODING 402
SWIDTH 600 0
DWIDTH 10 0
BBX 9 11 0 0
BITMAP
1F80
7F80
0000
7800
FC00
0000
FC00
7800
0000
F800
E000
ENDCHAR
STARTCHAR 02C6
ENCODING 710
SWIDTH 420 0
DWIDTH 7 0
BBX 6 2 0 12
BITMAP
78
CC
ENDCHAR
STARTCHAR 02DC
ENCODING 732
SWIDTH 420 0
DWIDTH 7 0
BBX 6 2 0 12
BITMAP
EC
DC
ENDCHAR
STARTCHAR 2013
ENCODING 8211
SWIDTH 420 0
DWIDTH 7 0
BBX 6 2 0 4
BITMAP
FC
FC
ENDCHAR
STARTCHAR 2014
ENCODING 8212
SWIDTH 780 0
DWIDTH 13 0
BBX 12 2 0 4
BITMAP
FFF0
FFF0
ENDCHAR
STARTCHAR 2018
ENCODING 8216
SWIDTH 240 0
DWIDTH 4 0
BBX 3 4 0 9
BITMAP
C0
00
E0
E0
ENDCHAR
STARTCHAR 2019
ENCODING 8217
SWIDTH 240 0
DWIDTH 4 0
BBX 3 4 0 7
BITMAP
E0
E0
00
60
ENDCHAR
STARTCHAR 201A
ENCODING 8218
SWIDTH 240 0
DWIDTH 4 0
BBX 3 4 0 -2
BITMAP
E0
E0
00
E0
ENDCHAR
STARTCHAR 201C
ENCODING 8220
SWIDTH 480 0
DWIDTH 8 0
BBX 8 4 0 9
BITMAP
CC
00
EF
EF
ENDCHAR
STARTCHAR 201D
ENCODING 8221
SWIDTH 480 0
DWIDTH 8 0
BBX 8 4 0 7
BITMAP
EF
EF
00
63
ENDCHAR
STARTCHAR 201E
ENCODING 8222
SWIDTH 480 0
DWIDTH 8 0
BBX 8 4 0 -2
BITMAP
EF
EF
00
EF
ENDCHAR
STARTCHAR 2020
ENCODING 8224
SWIDTH 600 0
DWIDTH 10 0
BBX 9 11 0 0
BITMAP
1C00
FF80
0000
FF80
1C00
0000
1C00
1C00
0000
1C00
1C00
ENDCHAR
STARTCHAR 2021
ENCODING 8225
SWIDTH 600 0
DWIDTH 10 0
BBX 9 11 0 0
BITMAP
1C00
FF80
0000
FF80
1C00
0000
1C00
FF80
0000
FF80
1C00
ENDCHAR
STARTCHAR 2022
ENCODING 8226
SWIDTH 420 0
DWIDTH 7 0
BBX 6 5 0 3
BITMAP
78
FC
00
FC
78
ENDCHAR
STARTCHAR 2026
ENCODING 8230
SWIDTH 780 0
DWIDTH 13 0
BBX 12 2 0 0
BITMAP
EF70
EF70
ENDCHAR
STARTCHAR 2030
ENCODING 8240
SWIDTH 960 0
DWIDTH 16 0
BBX 15 11 0 0
BITMAP
F870
D9F0
0000
FBE0
0F80
0000
1F00
7DFE
0000
F9B6
E1FE
ENDCHAR
STARTCHAR 2039
ENCODING 8249
SWIDTH 420 0
DWIDTH 7 0
BBX 6 8 0 1
BITMAP
1C
7C
00
F8
F8
00
7C
1C
ENDCHAR
STARTCHAR 203A
ENCODING 8250
SWIDTH 420 0
DWIDTH 7 0
BBX 6 8 0 1
BITMAP
E0
F8
00
7C
7C
00
F8
E0
ENDCHAR
STARTCHAR 2122
ENCODING 8482
SWIDTH 780 0
DWIDTH 13 0
BBX 12 11 0 0
BITMAP
3FC0
7FE0
0000
0600
0F00
0000
3FC0
FFF0
0000
E670
EF70
ENDCHAR
STARTCHAR 2219
ENCODING 8729
SWIDTH 240 0
DWIDTH 4 0
BBX 3 2 0 4
BITMAP
E0
E0
ENDCHAR
STARTCHAR E000
ENCODING 57344
SWIDTH 0 0
DWIDTH 0 0
BBX 0 0 0 0
BITMAP
ENDCHAR
STARTCHAR E001
ENCODING 57345
SWIDTH 480 0
DWIDTH 8 0
BBX 0 0 0 0
BITMAP
ENDCHAR
ENDFONT
